<svg width="23" height="22" viewBox="0 0 23 22" fill="none" xmlns="http://www.w3.org/2000/svg">
<path d="M11.5 22C17.5751 22 22.5 17.0752 22.5 11C22.5 4.92485 17.5751 0 11.5 0C5.42485 0 0.5 4.92485 0.5 11C0.5 17.0752 5.42485 22 11.5 22ZM9.30974 8.80974L17.1212 5.37866L13.6903 13.1902L5.87875 16.6213L9.30974 8.80974Z" fill="#FF385C"/>
<path d="M11.5 12.1363C12.1969 12.1363 12.7619 11.5714 12.7619 10.8745C12.7619 10.1775 12.1969 9.61258 11.5 9.61258C10.8031 9.61258 10.2381 10.1775 10.2381 10.8745C10.2381 11.5714 10.8031 12.1363 11.5 12.1363Z" fill="#FF385C"/>
</svg>
